<svg width="151" height="107" viewBox="0 0 151 107" fill="none" xmlns="http://www.w3.org/2000/svg">
<path d="M89.7877 16.0528C88.378 17.653 86.511 18.8341 84.3392 19.3675C84.3011 19.3675 84.2249 19.4056 84.1868 19.4056C84.4536 20.0915 84.6441 20.7773 84.7965 21.4631C99.694 27.5212 110.21 42.152 110.21 59.2594C110.21 81.7771 91.9595 100.028 69.4417 100.028C51.1151 100.028 35.6461 87.9495 30.5024 71.3374C27.5306 71.1088 24.7111 69.9277 22.5012 67.9464C26.578 90.1593 46.0477 107 69.4417 107C95.8077 107 117.182 85.6253 117.182 59.2594C117.182 40.1326 105.981 23.673 89.7877 16.0528ZM23.187 47.5242C25.5112 45.6954 28.3307 44.7048 31.3788 44.6667C35.1889 34.7604 42.6948 26.7211 52.2582 22.2632C52.9059 18.7579 54.6204 15.5574 57.0589 13.119C40.4087 17.6149 27.3782 30.7979 23.187 47.5242Z" fill="url(#paint0_linear_10_4017)"/>
<path d="M121.755 47.7529L121.907 46.6479L122.364 47.7529H122.517L122.974 46.6479L123.126 47.7529H123.545L123.241 45.8859H122.898L122.44 47.0289L121.983 45.8859H121.64L121.336 47.7529H121.755ZM121.183 46.2669V45.8859H119.926V46.2669H120.345V47.791H120.764V46.2669H121.183Z" fill="white"/>
<path d="M121.754 43.4855C120.04 43.4855 118.63 44.8953 118.63 46.6098C118.63 48.3244 120.04 49.7341 121.754 49.7341C123.469 49.7341 124.878 48.3244 124.878 46.6098C124.878 44.8953 123.469 43.4855 121.754 43.4855ZM121.754 49.3912C120.23 49.3912 118.973 48.1339 118.973 46.6098C118.973 45.0858 120.23 43.8284 121.754 43.8284C123.278 43.8284 124.536 45.0858 124.536 46.6098C124.536 48.172 123.278 49.3912 121.754 49.3912Z" fill="white"/>
<path d="M91.4646 77.8908C91.0836 77.0526 90.3978 77.0145 90.1311 77.0145C89.2929 77.0145 88.7214 77.5098 88.7214 78.3861C88.7214 78.6147 88.7595 78.8814 88.95 79.11C89.1786 79.3767 89.5596 79.5672 90.1311 79.8339C90.5883 80.0245 90.9312 80.1769 90.9312 80.6341C90.9312 81.0151 90.7026 81.3961 90.1311 81.3961C89.5215 81.3961 89.2548 80.8627 89.1405 80.596L88.4166 80.9008C88.8357 82.12 89.9025 82.1581 90.1311 82.1581C91.0836 82.1581 91.8076 81.5866 91.8076 80.5579C91.8076 80.2912 91.7695 80.0245 91.5409 79.7577C91.3504 79.5291 91.0074 79.3005 90.3216 78.9957C89.7882 78.7671 89.5215 78.6528 89.5215 78.3099C89.5215 77.9289 89.7882 77.7765 90.093 77.7765C90.3978 77.7765 90.6645 78.0051 90.7788 78.2718L91.4646 77.8908ZM87.9594 77.9289V77.1669H87.1211V75.3761H86.2829V77.1288H85.7495V77.8908H86.2829V82.0057H87.1211V77.8908H87.9594V77.9289ZM80.7201 82.0057H81.5584V79.4529C81.5584 79.11 81.5965 78.5385 81.9013 78.1194C82.1299 77.8146 82.4728 77.7384 82.7395 77.7384C83.1205 77.7384 83.3872 77.8908 83.5396 78.0813C83.7301 78.348 83.7682 78.6909 83.7682 78.9576V81.9676H84.6065V78.9576C84.6065 78.4242 84.5684 78.0051 84.3398 77.6622C84.0349 77.2431 83.5015 76.9764 82.93 76.9764C82.1299 76.9764 81.6727 77.4717 81.5203 77.6622V77.0907H80.6821V82.0057H80.7201ZM75.6908 79.0338C75.8051 78.3099 76.4147 77.7765 77.1387 77.7765C77.8626 77.7765 78.4341 78.2718 78.5865 79.0338H75.6908ZM78.7008 80.3674C78.5865 80.596 78.4341 80.8627 78.2055 81.0532C77.9388 81.2818 77.5959 81.3961 77.2149 81.3961C76.3766 81.3961 75.6908 80.7484 75.6527 79.7577H79.4628C79.5009 79.11 79.3104 78.348 79.0056 77.9289C78.7008 77.5098 78.1293 77.0526 77.1768 77.0526C75.6908 77.0526 74.8145 78.1956 74.8145 79.6434C74.8145 81.4342 76.0337 82.1962 77.2149 82.1962C77.8245 82.1962 78.396 82.0057 78.8532 81.5866C79.0818 81.358 79.3104 81.0532 79.4628 80.7865L78.7008 80.3674ZM67.0419 82.0057H67.8801V79.3386C67.8801 78.7671 67.9944 77.7384 68.9469 77.7384C69.8232 77.7384 69.8232 78.729 69.8232 79.0719V81.9676H70.6615V79.2624C70.6615 78.6909 70.7758 77.7384 71.7283 77.7384C72.5284 77.7384 72.6046 78.4623 72.6046 79.0338V82.0057H73.4429V78.9195C73.4429 78.2337 73.2904 77.0145 71.8426 77.0145C71.4997 77.0145 70.852 77.0526 70.3567 77.8146C70.2805 77.6622 69.8994 77.0145 69.0231 77.0145C68.4897 77.0145 68.0706 77.2431 67.8039 77.6622V77.1288H66.9657V82.0057H67.0419ZM63.5747 82.0057H64.4129V79.4529C64.4129 78.6528 64.5653 78.3099 64.6796 78.1194C64.7939 77.967 65.0225 77.8146 65.3654 77.8146C65.4797 77.8146 65.6702 77.8527 65.8607 77.967L66.2417 77.205C66.0131 77.0907 65.7464 77.0145 65.4797 77.0145C64.832 77.0145 64.451 77.5479 64.3748 77.6622V77.1288H63.5366V82.0057H63.5747ZM59.5741 77.7765C60.3361 77.7765 61.2124 78.3099 61.2124 79.5672C61.2124 80.5198 60.6409 81.3961 59.5741 81.3961C58.5834 81.3961 57.9738 80.596 57.9738 79.5672C57.9738 78.3861 58.7358 77.7765 59.5741 77.7765ZM61.1362 77.8527C60.9076 77.5479 60.4123 77.0526 59.4598 77.0526C58.2024 77.0526 57.0975 77.9289 57.0975 79.6053C57.0975 81.3199 58.2405 82.1962 59.4598 82.1962C60.298 82.1962 60.8314 81.739 61.1362 81.358V82.0438H61.9744V77.1669H61.1362V77.8527ZM52.754 78.9195H55.0781C55.04 79.4148 54.8876 79.7958 54.7733 80.0245C54.3161 80.8246 53.4398 81.358 52.373 81.358C50.887 81.358 49.2106 80.2912 49.2106 78.1575C49.2106 76.3287 50.5441 74.9189 52.4111 74.9189C53.3636 74.9189 53.9351 75.2618 54.3161 75.5666C54.5828 75.7952 54.8495 76.0619 55.04 76.3668L55.6878 75.7952C55.4591 75.4904 55.1543 75.1475 54.7733 74.8808C54.0113 74.3093 53.135 74.1188 52.373 74.1188C50.0488 74.1188 48.2961 75.9095 48.2961 78.1575C48.2961 80.4436 50.0488 82.1962 52.373 82.1962C54.1637 82.1962 55.04 81.0913 55.2686 80.7865C55.764 80.1007 56.0307 79.1862 56.0307 78.3099V78.1194H52.754V78.9195Z" fill="url(#paint1_linear_10_4017)"/>
<path d="M98.0939 56.5542V51.0295H98.6654C101.485 51.0295 102.818 51.5249 102.818 53.9252C102.818 56.2494 101.447 56.5923 98.6654 56.5923H98.0939V56.5542ZM97.9034 58.9927H98.2463L104.685 67.6416H108.229L101.599 58.8403C104.533 58.4974 106.019 56.7447 106.019 53.6204C106.019 51.7916 105.333 50.3056 104.152 49.3912C102.971 48.4768 101.409 48.3244 99.3512 48.3244H94.9696V67.6416H97.9034V58.9927ZM80.8341 67.6416H91.6167V64.8221H83.9584V58.5736H91.6167V55.8303H83.9584V50.9914H91.6167V48.3244H80.8341V67.6416ZM66.7367 67.6416H77.5193V64.8221H69.861V58.5736H77.5193V55.8303H69.861V50.9914H77.5193V48.3244H66.7367V67.6416ZM45.3239 67.6416H48.2196V54.1919C48.753 54.954 49.4007 55.6779 50.0865 56.3637L62.5837 68.4036V48.3244H59.688V61.7359C59.0403 60.9358 58.3545 60.1357 57.5924 59.3737L45.3239 47.5623V67.6416ZM38.7324 58.002C38.7324 59.9452 38.0085 61.7359 36.6369 63.1076C35.3033 64.4792 33.5507 65.2031 31.6456 65.2031C29.7406 65.2031 27.9879 64.4792 26.6544 63.1076C25.3208 61.7359 24.5969 59.9452 24.5969 58.002C24.5969 56.0589 25.2827 54.23 26.6544 52.8584C28.026 51.4868 29.7787 50.7628 31.6456 50.7628C33.5126 50.7628 35.3033 51.4868 36.6369 52.8584C37.9704 54.2681 38.7324 56.0589 38.7324 58.002ZM41.971 58.002C41.971 55.2588 40.9042 52.7441 38.961 50.8009C36.9798 48.8959 34.4651 47.8672 31.6456 47.8672C28.8261 47.8672 26.3115 48.8959 24.3302 50.8009C22.349 52.7441 21.3202 55.2207 21.3202 58.002C21.3202 60.7834 22.349 63.26 24.3302 65.165C26.2734 67.0701 28.9023 68.1369 31.6456 68.1369C34.3889 68.1369 36.9798 67.0701 38.961 65.165C40.9423 63.26 41.971 60.7834 41.971 58.002ZM14.8049 67.6416H17.9292V48.3244H14.8049V67.6416ZM3.75564 56.4018V51.0295H4.55576C7.48954 51.0295 8.89928 51.5249 8.89928 53.849C8.89928 56.097 7.45144 56.4018 4.55576 56.4018H3.75564ZM3.56513 58.9546H5.39398C7.37524 58.9546 8.93738 58.9165 10.2328 57.9639C11.4139 57.0876 12.176 55.4874 12.176 53.6204C12.176 51.7535 11.4139 50.1532 10.2328 49.2769C8.93738 48.3244 7.37524 48.2863 5.39398 48.2863H0.631348V67.6416H3.56513V58.9546Z" fill="white"/>
<path d="M141.491 58.8402C141.491 58.4211 141.681 57.8115 141.986 57.5448C142.215 57.3543 142.558 57.2019 142.863 57.2019C143.282 57.2019 143.625 57.3543 143.853 57.5448C144.196 57.8496 144.349 58.383 144.387 58.8022H141.491V58.8402ZM150.368 61.4692V60.7834C150.368 59.0308 149.606 57.1257 148.273 55.7922C147.016 54.5729 145.263 53.8109 142.824 53.8109C140.272 53.8109 138.405 54.7253 137.186 55.9065C135.966 57.1257 135.28 58.8784 135.28 60.6691C135.28 62.8409 136.271 64.2887 137.071 65.0888C138.786 66.8034 141.11 67.1844 143.053 67.1844C145.987 67.1844 147.549 66.2319 148.844 64.8221C149.378 64.2125 149.835 63.6029 150.102 62.6504H144.12C144.044 62.9171 143.891 63.2219 143.701 63.3743C143.472 63.5648 143.205 63.7172 142.786 63.7172C142.291 63.7172 141.986 63.5267 141.872 63.3743C141.529 62.9933 141.377 62.1169 141.415 61.5454H150.368V61.4692ZM124.993 66.7653V60.2119C124.993 59.8309 125.031 59.3356 125.374 58.9546C125.603 58.7259 125.869 58.6497 126.174 58.6497C126.403 58.6497 126.67 58.6878 126.86 58.9165C126.936 58.9927 127.127 59.2594 127.127 59.9071V66.7653H133.261V58.6497C133.261 57.6591 133.109 56.097 131.851 54.9158C131.242 54.3443 130.213 53.7728 128.765 53.7728C127.889 53.7728 127.165 54.0014 126.479 54.4586C125.984 54.8015 125.26 55.4874 124.765 56.097L124.612 56.0589C124.765 55.6398 124.841 55.1825 124.841 54.7634V54.1157H118.821V66.7272H124.993V66.7653Z" fill="url(#paint2_linear_10_4017)"/>
<path d="M67.4986 39.7135V40.4374C59.8784 39.9802 53.8584 33.4268 53.8584 25.3875C53.8584 18.5674 58.2019 12.8142 64.1838 10.9472V13.6524C64.1838 13.6524 62.8122 14.6811 62.5454 19.6724C62.2787 24.6255 62.9265 35.4462 63.3456 36.4368C63.8028 37.4656 64.6029 38.9134 67.4986 39.7135Z" fill="white"/>
<path d="M69.7085 39.7135V40.4374C77.3287 39.9802 83.3487 33.4268 83.3487 25.3875C83.3487 18.5674 79.0052 12.8142 73.0233 10.9472V13.6524C73.0233 13.6524 74.3949 14.6811 74.6616 19.6724C74.9283 24.6255 74.2806 35.4462 73.8615 36.4368C73.4043 37.4656 72.6423 38.9134 69.7085 39.7135Z" fill="white"/>
<path d="M75.3858 1.99349V1.04096H61.8218V1.99349H62.0504C63.422 1.99349 64.5651 3.09842 64.5651 4.50816V28.2451C64.5651 28.8928 64.0316 29.3882 63.422 29.3882V30.3407H73.7855V29.3882C73.1378 29.3882 72.6425 28.8547 72.6425 28.2451V4.50816C72.6425 3.13652 73.7474 1.99349 75.1572 1.99349H75.3858Z" fill="url(#paint3_linear_10_4017)"/>
<path d="M76.148 1.04095C76.148 1.04095 87.1973 -0.178285 89.75 6.22269C91.0455 9.42318 90.2835 11.9379 89.1785 13.6905C87.9974 15.5956 86.0542 16.9672 83.8825 17.5006C83.3491 17.653 82.7775 17.7292 82.2822 17.6911L80.8344 15.7099C80.8344 15.7099 83.3872 9.72799 80.8344 3.89853C80.8344 3.89853 79.9581 2.18398 76.1099 1.87917V1.04095H76.148Z" fill="url(#paint4_linear_10_4017)"/>
<path d="M79.6472 92.4641C79.3928 92.4641 79.1642 92.4154 78.9612 92.318C78.7596 92.2192 78.5986 92.0839 78.4782 91.9121C78.3578 91.7402 78.2935 91.544 78.2854 91.3235H78.8943C78.9091 91.5021 78.9883 91.6489 79.1317 91.7639C79.2751 91.8789 79.447 91.9364 79.6472 91.9364C79.8069 91.9364 79.9483 91.8999 80.0714 91.8268C80.1959 91.7524 80.2933 91.6503 80.3636 91.5204C80.4354 91.3905 80.4712 91.2423 80.4712 91.0759C80.4712 90.9068 80.4347 90.7559 80.3616 90.6233C80.2885 90.4907 80.1877 90.3865 80.0592 90.3108C79.932 90.235 79.7859 90.1964 79.6208 90.1951C79.495 90.1951 79.3685 90.2167 79.2413 90.26C79.1141 90.3033 79.0113 90.3602 78.9328 90.4305L78.3585 90.3453L78.5919 88.2508H80.8771V88.7886H79.1134L78.9815 89.9515H79.0059C79.0871 89.8731 79.1946 89.8074 79.3286 89.7547C79.4639 89.7019 79.6087 89.6755 79.7629 89.6755C80.0159 89.6755 80.2412 89.7357 80.4387 89.8562C80.6376 89.9766 80.7939 90.141 80.9076 90.3493C81.0226 90.5563 81.0794 90.7945 81.078 91.0637C81.0794 91.333 81.0185 91.5731 80.8954 91.7842C80.7736 91.9953 80.6045 92.1617 80.388 92.2835C80.1729 92.4039 79.9259 92.4641 79.6472 92.4641Z" fill="white"/>
<path d="M76.0679 92.4641C75.777 92.4641 75.52 92.414 75.2967 92.3139C75.0748 92.2138 74.901 92.0758 74.7751 91.8999C74.6493 91.724 74.5871 91.5238 74.5884 91.2992C74.5871 91.1233 74.6229 90.9616 74.696 90.8141C74.7704 90.6653 74.8712 90.5415 74.9984 90.4427C75.1256 90.3426 75.2676 90.279 75.4246 90.2519V90.2276C75.2176 90.1775 75.0518 90.0666 74.9273 89.8947C74.8029 89.7229 74.7413 89.5253 74.7427 89.3021C74.7413 89.0897 74.7975 88.9002 74.9111 88.7338C75.0261 88.5661 75.1837 88.4341 75.384 88.3381C75.5842 88.242 75.8122 88.194 76.0679 88.194C76.321 88.194 76.5469 88.2427 76.7458 88.3401C76.9461 88.4362 77.1037 88.5681 77.2187 88.7359C77.3337 88.9023 77.3919 89.091 77.3932 89.3021C77.3919 89.5253 77.3283 89.7229 77.2025 89.8947C77.0766 90.0666 76.9129 90.1775 76.7113 90.2276V90.2519C76.8669 90.279 77.0069 90.3426 77.1314 90.4427C77.2572 90.5415 77.3574 90.6653 77.4318 90.8141C77.5076 90.9616 77.5461 91.1233 77.5475 91.2992C77.5461 91.5238 77.4825 91.724 77.3567 91.8999C77.2309 92.0758 77.0563 92.2138 76.8331 92.3139C76.6112 92.414 76.3561 92.4641 76.0679 92.4641ZM76.0679 91.9506C76.2398 91.9506 76.3886 91.9222 76.5144 91.8654C76.6403 91.8072 76.7377 91.7267 76.8067 91.6239C76.8757 91.5197 76.9109 91.3979 76.9122 91.2586C76.9109 91.1138 76.873 90.9859 76.7986 90.875C76.7255 90.764 76.6261 90.6768 76.5002 90.6132C76.3744 90.5496 76.2303 90.5178 76.0679 90.5178C75.9042 90.5178 75.7588 90.5496 75.6316 90.6132C75.5044 90.6768 75.4043 90.764 75.3312 90.875C75.2582 90.9859 75.2223 91.1138 75.2237 91.2586C75.2223 91.3979 75.2555 91.5197 75.3231 91.6239C75.3921 91.7267 75.4902 91.8072 75.6174 91.8654C75.7446 91.9222 75.8948 91.9506 76.0679 91.9506ZM76.0679 90.0165C76.206 90.0165 76.3284 89.9888 76.4353 89.9333C76.5422 89.8778 76.6261 89.8007 76.687 89.7019C76.7492 89.6031 76.781 89.4875 76.7823 89.3549C76.781 89.225 76.7499 89.1113 76.689 89.0139C76.6294 88.9165 76.5462 88.8414 76.4393 88.7886C76.3325 88.7345 76.2087 88.7074 76.0679 88.7074C75.9245 88.7074 75.7987 88.7345 75.6905 88.7886C75.5836 88.8414 75.5004 88.9165 75.4408 89.0139C75.3813 89.1113 75.3522 89.225 75.3535 89.3549C75.3522 89.4875 75.382 89.6031 75.4428 89.7019C75.5037 89.8007 75.5876 89.8778 75.6945 89.9333C75.8028 89.9888 75.9272 90.0165 76.0679 90.0165Z" fill="white"/>
<path d="M72.4125 88.194C72.5978 88.1953 72.7805 88.2291 72.9605 88.2954C73.1404 88.3617 73.3028 88.47 73.4475 88.6202C73.5937 88.7704 73.71 88.9733 73.7966 89.229C73.8846 89.4834 73.9292 89.8 73.9306 90.1788C73.9306 90.5428 73.894 90.8669 73.821 91.151C73.7479 91.4338 73.6431 91.6726 73.5064 91.8674C73.3711 92.0623 73.2067 92.2104 73.0132 92.3119C72.8197 92.4134 72.6019 92.4641 72.3597 92.4641C72.1121 92.4641 71.8922 92.4154 71.7001 92.318C71.508 92.2206 71.3517 92.0859 71.2313 91.9141C71.1109 91.7409 71.0358 91.542 71.006 91.3174H71.625C71.6656 91.496 71.7481 91.6408 71.8726 91.7517C71.9985 91.8613 72.1608 91.9161 72.3597 91.9161C72.6641 91.9161 72.9016 91.7835 73.0721 91.5183C73.2426 91.2518 73.3285 90.8797 73.3298 90.4021H73.2974C73.227 90.5185 73.1391 90.6186 73.0335 90.7025C72.9293 90.7864 72.8123 90.8513 72.6824 90.8973C72.5525 90.9433 72.4138 90.9663 72.2664 90.9663C72.0269 90.9663 71.809 90.9074 71.6128 90.7897C71.4167 90.672 71.2604 90.5103 71.144 90.3047C71.0277 90.099 70.9695 89.8643 70.9695 89.6004C70.9695 89.3379 71.029 89.0998 71.1481 88.886C71.2685 88.6723 71.4363 88.5031 71.6514 88.3787C71.8679 88.2528 72.1216 88.1913 72.4125 88.194ZM72.4145 88.7216C72.2562 88.7216 72.1135 88.7609 71.9863 88.8394C71.8604 88.9165 71.761 89.0213 71.6879 89.1539C71.6149 89.2852 71.5783 89.4313 71.5783 89.5923C71.5783 89.7533 71.6135 89.8994 71.6839 90.0307C71.7556 90.1606 71.853 90.2641 71.9761 90.3412C72.1006 90.417 72.2427 90.4549 72.4023 90.4549C72.5214 90.4549 72.6323 90.4319 72.7352 90.3859C72.838 90.3399 72.928 90.2763 73.0051 90.1951C73.0822 90.1125 73.1424 90.0192 73.1857 89.915C73.229 89.8108 73.2507 89.7012 73.2507 89.5862C73.2507 89.4333 73.2141 89.2913 73.1411 89.16C73.0694 89.0288 72.9706 88.9232 72.8448 88.8434C72.7189 88.7622 72.5755 88.7216 72.4145 88.7216Z" fill="white"/>
<path d="M69.9063 88.2508V92.4073H69.2771V88.8799H69.2528L68.2583 89.5294V88.9287L69.2954 88.2508H69.9063Z" fill="white"/>
<path d="M66.1535 89.2899V89.777H64.4507V89.2899H66.1535ZM64.9073 88.543H65.5142V91.4919C65.5142 91.6097 65.5317 91.6983 65.5669 91.7578C65.6021 91.816 65.6474 91.8559 65.7029 91.8775C65.7597 91.8978 65.8213 91.908 65.8876 91.908C65.9363 91.908 65.9789 91.9046 66.0155 91.8978C66.052 91.8911 66.0804 91.8857 66.1007 91.8816L66.2103 92.3829C66.1751 92.3964 66.125 92.41 66.0601 92.4235C65.9952 92.4384 65.914 92.4465 65.8166 92.4478C65.6569 92.4506 65.5081 92.4221 65.3701 92.3626C65.2321 92.3031 65.1204 92.2111 65.0352 92.0866C64.9499 91.9621 64.9073 91.8058 64.9073 91.6178V88.543Z" fill="white"/>
<path d="M63.9701 90.051L63.4201 90.1484C63.3971 90.078 63.3606 90.0111 63.3105 89.9475C63.2618 89.8839 63.1955 89.8318 63.1116 89.7912C63.0277 89.7506 62.9229 89.7303 62.797 89.7303C62.6252 89.7303 62.4818 89.7689 62.3668 89.846C62.2518 89.9218 62.1943 90.0199 62.1943 90.1403C62.1943 90.2445 62.2328 90.3283 62.3099 90.3919C62.3871 90.4555 62.5115 90.5076 62.6834 90.5482L63.1786 90.6619C63.4654 90.7282 63.6792 90.8303 63.8199 90.9683C63.9606 91.1063 64.031 91.2856 64.031 91.5062C64.031 91.6929 63.9769 91.8593 63.8686 92.0054C63.7617 92.1502 63.6122 92.2638 63.4201 92.3464C63.2293 92.4289 63.0081 92.4702 62.7564 92.4702C62.4074 92.4702 62.1225 92.3958 61.902 92.2469C61.6815 92.0967 61.5462 91.8836 61.4961 91.6076L62.0826 91.5183C62.1192 91.6712 62.1943 91.7869 62.3079 91.8654C62.4216 91.9425 62.5697 91.9811 62.7524 91.9811C62.9513 91.9811 63.1102 91.9398 63.2293 91.8573C63.3484 91.7734 63.4079 91.6712 63.4079 91.5508C63.4079 91.4534 63.3714 91.3715 63.2983 91.3052C63.2266 91.2389 63.1163 91.1889 62.9675 91.155L62.4398 91.0394C62.1489 90.9731 61.9338 90.8675 61.7944 90.7228C61.6564 90.578 61.5874 90.3946 61.5874 90.1727C61.5874 89.9887 61.6388 89.8277 61.7417 89.6897C61.8445 89.5517 61.9866 89.4441 62.1679 89.367C62.3492 89.2886 62.5569 89.2493 62.7909 89.2493C63.1278 89.2493 63.393 89.3224 63.5865 89.4685C63.78 89.6133 63.9079 89.8074 63.9701 90.051Z" fill="white"/>
<path d="M58.2395 92.4073V88.2508H60.8454V88.7906H58.8666V90.0571H60.7094V90.5949H58.8666V91.8674H60.8698V92.4073H58.2395Z" fill="white"/>
<defs>
<linearGradient id="paint0_linear_10_4017" x1="22.6808" y1="75.4916" x2="128.793" y2="38.6315" gradientUnits="userSpaceOnUse">
<stop stop-color="#E9A638"/>
<stop offset="0.25" stop-color="#F5EA77"/>
<stop offset="0.53" stop-color="#EAAE3F"/>
<stop offset="0.83" stop-color="#DE971A"/>
<stop offset="1" stop-color="#EFEA7A"/>
</linearGradient>
<linearGradient id="paint1_linear_10_4017" x1="48.2956" y1="78.1089" x2="91.7639" y2="78.1089" gradientUnits="userSpaceOnUse">
<stop stop-color="#E9A638"/>
<stop offset="0.25" stop-color="#F5EA77"/>
<stop offset="0.53" stop-color="#EAAE3F"/>
<stop offset="0.83" stop-color="#DE971A"/>
<stop offset="1" stop-color="#EFEA7A"/>
</linearGradient>
<linearGradient id="paint2_linear_10_4017" x1="29.8305" y1="96.0738" x2="135.943" y2="59.2137" gradientUnits="userSpaceOnUse">
<stop stop-color="#E9A638"/>
<stop offset="0.25" stop-color="#F5EA77"/>
<stop offset="0.53" stop-color="#EAAE3F"/>
<stop offset="0.83" stop-color="#DE971A"/>
<stop offset="1" stop-color="#EFEA7A"/>
</linearGradient>
<linearGradient id="paint3_linear_10_4017" x1="51.5372" y1="32.182" x2="81.3231" y2="2.02371" gradientUnits="userSpaceOnUse">
<stop stop-color="#E9A638"/>
<stop offset="0.25" stop-color="#F5EA77"/>
<stop offset="0.53" stop-color="#EAAE3F"/>
<stop offset="0.83" stop-color="#DE971A"/>
<stop offset="1" stop-color="#EFEA7A"/>
</linearGradient>
<linearGradient id="paint4_linear_10_4017" x1="54.9629" y1="35.5653" x2="84.7489" y2="5.407" gradientUnits="userSpaceOnUse">
<stop stop-color="#E9A638"/>
<stop offset="0.25" stop-color="#F5EA77"/>
<stop offset="0.53" stop-color="#EAAE3F"/>
<stop offset="0.83" stop-color="#DE971A"/>
<stop offset="1" stop-color="#EFEA7A"/>
</linearGradient>
</defs>
</svg>
