<svg width="150" height="150" viewBox="0 0 150 150" fill="none" xmlns="http://www.w3.org/2000/svg">
<circle cx="75" cy="75" r="75" fill="url(#paint0_linear_43_978)"/>
<g clip-path="url(#clip0_43_978)">
<path d="M42 68.0685C42 67.7201 42 67.3847 42 67.0363C42.3352 66.2622 42.9281 65.8364 43.7273 65.5397C49.4379 63.4496 55.1484 61.3208 60.8461 59.179C61.207 59.05 61.568 58.792 61.8 58.4952C65.6414 53.6699 69.457 48.8317 73.2727 43.9935C74.3168 42.6646 75.6445 42.6646 76.7016 43.9935C80.5301 48.8317 84.3457 53.6699 88.1742 58.4952C88.3934 58.7791 88.7414 59.0242 89.0766 59.1532C94.7613 61.2821 100.446 63.398 106.144 65.4881C106.969 65.7977 107.626 66.2106 107.987 67.0363C107.987 67.3847 107.987 67.7201 107.987 68.0685C107.742 68.4426 107.523 68.8297 107.265 69.1909C103.927 74.2227 100.575 79.2415 97.2492 84.2732C97.0816 84.5313 96.9141 84.8409 96.9012 85.1377C96.6305 91.3177 96.3727 97.5106 96.1277 103.691C96.0504 105.561 95.032 106.348 93.2402 105.845C87.3621 104.194 81.484 102.529 75.593 100.891C75.2062 100.788 74.7422 100.788 74.3555 100.904C68.3871 102.555 62.4187 104.232 56.4504 105.897C55.0453 106.284 53.898 105.484 53.8336 104.078C53.5758 97.8461 53.318 91.6273 53.0473 85.3957C53.0344 85.0087 52.9055 84.5958 52.6992 84.2732C49.1672 78.8673 45.5836 73.4744 42 68.0685ZM67.7812 77.0482C67.8199 77.0482 67.8715 77.0611 67.9102 77.0611C67.9102 77.8739 67.8715 78.6996 67.923 79.5124C68.0906 82.6089 70.2949 84.8409 73.4918 85.1635C76.4051 85.4602 79.1379 83.6152 79.7824 80.6994C80.298 78.4029 80.2078 76.0289 79.8598 73.7066C79.4602 71.023 77.0754 69.0748 74.3426 68.9716C71.352 68.8555 68.877 70.494 68.1938 73.2292C67.8973 74.4678 67.9102 75.7709 67.7812 77.0482ZM86.2406 81.151C87.027 81.0865 87.7359 81.0607 88.432 80.9575C91.2938 80.5446 93.3691 78.1835 93.4465 75.2806C93.5367 72.1455 91.6676 69.6167 88.7285 69.1135C87.4137 68.8942 86.0344 68.9458 84.6809 68.9329C83.0824 68.9071 82.3734 69.6554 82.3734 71.2681C82.3734 75.1387 82.3734 79.0093 82.3734 82.8798C82.3734 83.0476 82.3734 83.2282 82.3863 83.3959C82.5023 84.5055 83.3016 85.2409 84.3457 85.2151C85.4285 85.1893 86.202 84.4023 86.2277 83.254C86.2535 82.5702 86.2406 81.8864 86.2406 81.151ZM59.6086 72.7905C59.6086 73.1002 59.6086 73.3324 59.6086 73.5647C59.6086 75.7967 59.6086 78.0287 59.6086 80.2737C59.6086 81.3703 59.5828 82.467 59.6473 83.5636C59.7117 84.5184 60.498 85.1893 61.4648 85.228C62.4188 85.2538 63.2309 84.6216 63.3984 83.6798C63.45 83.383 63.4629 83.0863 63.4629 82.7766C63.4629 79.7189 63.4629 76.674 63.4629 73.6163C63.4629 73.3711 63.4629 73.1131 63.4629 72.7905C63.8754 72.7905 64.2234 72.8035 64.5586 72.7905C65.7961 72.726 66.5824 71.9261 66.5437 70.7908C66.5051 69.6683 65.7445 68.9329 64.507 68.92C62.509 68.9071 60.5109 68.9071 58.5129 68.92C57.2883 68.9329 56.5277 69.6812 56.502 70.8037C56.4891 71.939 57.2238 72.7002 58.4227 72.7776C58.8094 72.8164 59.1703 72.7905 59.6086 72.7905Z" fill="#422C1C"/>
<path d="M71.7645 77.0353C71.7645 76.3257 71.7516 75.6161 71.7645 74.9065C71.8032 73.7066 72.7442 72.8164 73.9301 72.8035C75.1419 72.7906 76.1215 73.6937 76.1473 74.9194C76.1731 76.3386 76.1731 77.7578 76.1473 79.177C76.1215 80.4672 75.1676 81.3703 73.9173 81.3574C72.6926 81.3316 71.7903 80.4414 71.7645 79.177C71.7516 78.4545 71.7645 77.7449 71.7645 77.0353Z" fill="#422C1C"/>
<path d="M86.2922 72.8292C87.3879 72.7647 88.4836 72.6615 89.2055 73.7195C89.734 74.4936 89.7598 75.3451 89.2958 76.145C88.6254 77.3191 87.4782 77.2546 86.2922 77.203C86.2922 75.7451 86.2922 74.3129 86.2922 72.8292Z" fill="#422C1C"/>
</g>
<defs>
<linearGradient id="paint0_linear_43_978" x1="0.284486" y1="99.657" x2="333.176" y2="-28.7486" gradientUnits="userSpaceOnUse">
<stop stop-color="#E9A638"/>
<stop offset="0.25" stop-color="#F5EA77"/>
<stop offset="0.53" stop-color="#EAAE3F"/>
<stop offset="0.83" stop-color="#DE971A"/>
<stop offset="1" stop-color="#EFEA7A"/>
</linearGradient>
<clipPath id="clip0_43_978">
<rect width="66" height="63" fill="white" transform="translate(42 43)"/>
</clipPath>
</defs>
</svg>
