<svg width="150" height="150" viewBox="0 0 150 150" fill="none" xmlns="http://www.w3.org/2000/svg">
<circle cx="75" cy="75" r="75" fill="url(#paint0_linear_43_976)"/>
<g clip-path="url(#clip0_43_976)">
<path d="M80.7207 117C78.9866 117 77.2704 117 75.5363 117C74.4994 116.874 73.4804 116.677 72.4436 116.677C71.5855 116.659 71.3173 116.319 71.2815 115.512C71.067 111.011 70.6201 106.51 70.638 102.009C70.6737 95.7144 70.9776 89.4023 71.3173 83.126C71.5139 79.4319 71.9609 75.7558 72.3184 72.0618C72.3542 71.739 72.5329 71.3624 72.7653 71.1652C76.5195 68.0091 80.4525 65.1399 84.9218 63.0598C86.2089 62.468 87.4782 61.7866 88.676 61.0155C89.9452 60.1906 90.124 59.4195 89.5698 58.0208C89.0156 56.6042 88.372 55.2234 87.8894 53.7888C87.4067 52.408 87.943 51.7087 89.4089 51.7445C91.1251 51.7804 92.8592 51.9418 94.5754 52.0494C94.8972 52.0673 95.2369 52.1211 95.5586 52.1211C97.1855 52.1032 98.0793 50.6865 97.2748 49.2878C96.1665 47.3332 94.9687 45.4144 93.6815 43.2626C95.4871 43.9619 97.1318 44.5358 98.7408 45.2172C101.512 46.4187 102.852 48.6243 102.888 51.6369C102.906 53.735 102.87 55.8152 102.96 57.9132C103.139 62.5039 103.282 67.1125 103.585 71.6852C103.818 75.0385 104.533 78.3919 104.604 81.7452C104.783 88.5236 104.676 95.302 104.712 102.08C104.712 102.654 104.515 102.905 103.943 103.049C100.993 103.802 98.0257 103.587 95.076 103.103C94.8257 103.067 94.4503 102.618 94.4324 102.349C94.1285 99.4802 93.7173 96.5931 93.6815 93.706C93.61 87.5014 93.7709 81.279 93.7888 75.0565C93.7888 72.6356 93.7173 70.2148 93.5743 67.7939C93.5207 66.9511 93.7888 66.4131 94.4503 66.0007C94.7005 65.8393 95.0581 65.7496 95.1832 65.5165C95.3441 65.2475 95.4693 64.7992 95.3441 64.5661C95.219 64.333 94.7542 64.1178 94.486 64.1716C93.0737 64.4047 91.8045 66.1262 91.8938 67.5249C92.0011 68.9774 92.1084 70.4479 92.1084 71.9004C92.0905 79.1091 92.019 86.3 92.0011 93.5088C92.0011 95.1765 92.1262 96.8442 92.2693 98.5119C92.4659 100.807 92.9128 103.085 92.9307 105.362C92.9486 108.034 92.6626 110.724 92.4301 113.396C92.3944 113.772 92.019 114.31 91.6614 114.436C89.8022 115.117 87.9072 115.799 85.9944 116.247C84.2782 116.641 82.4905 116.749 80.7207 117ZM86.6916 79.414C87.7463 79.4319 88.6045 78.5891 88.6045 77.5849C88.5866 76.6166 87.7464 75.7738 86.7631 75.7558C85.7441 75.7379 84.8324 76.6166 84.8503 77.6208C84.8503 78.5891 85.6726 79.414 86.6916 79.414ZM84.7966 106.402C84.7966 107.406 85.5832 108.213 86.6022 108.231C87.657 108.249 88.5329 107.424 88.5329 106.42C88.5329 105.434 87.7106 104.627 86.7095 104.591C85.6369 104.573 84.7966 105.362 84.7966 106.402ZM86.6737 92.9887C87.7106 93.0066 88.6045 92.1459 88.5866 91.1417C88.5687 90.1734 87.7285 89.3485 86.7274 89.3485C85.6726 89.3485 84.8145 90.1554 84.8324 91.1955C84.8324 92.1638 85.6547 92.9708 86.6737 92.9887ZM74.5888 78.1408C74.5709 79.145 75.3754 79.952 76.3765 80.0058C77.4134 80.0416 78.2894 79.2167 78.3072 78.1946C78.3251 77.1725 77.4491 76.3117 76.4301 76.3297C75.4112 76.3297 74.6067 77.1545 74.5888 78.1408ZM76.3944 105.613C75.3396 105.595 74.4815 106.456 74.4994 107.46C74.5173 108.428 75.3754 109.271 76.3586 109.271C77.3776 109.289 78.2536 108.41 78.2357 107.406C78.2357 106.402 77.4313 105.613 76.3944 105.613ZM74.0525 91.5721C73.9989 92.6121 74.8033 93.4729 75.8581 93.5088C76.8592 93.5446 77.7173 92.7556 77.7709 91.7693C77.8246 90.7651 77.0737 89.9223 76.0547 89.8685C74.9642 89.7968 74.1061 90.532 74.0525 91.5721Z" fill="#422C1C"/>
<path d="M107 106.061C106.535 106.438 106.07 106.815 105.427 107.352C105.498 105.864 105.57 104.681 105.641 103.264C106.16 103.515 106.571 103.712 107 103.909C107 104.627 107 105.344 107 106.061Z" fill="#422C1C"/>
<path d="M43.0001 103.909C43.3218 103.658 43.6258 103.407 44.1442 102.995C44.2157 104.465 44.2693 105.631 44.3408 107.012C43.8045 106.635 43.3934 106.33 42.9822 106.043C43.0001 105.344 43.0001 104.627 43.0001 103.909Z" fill="#422C1C"/>
<path d="M57.0513 43.5316C56.3184 44.5358 55.6212 45.4862 54.9418 46.4546C53.8871 47.9609 54.62 49.3775 56.4614 49.6286C58.41 49.8976 60.3407 50.2562 62.2536 50.6687C63.5586 50.9556 64.0592 51.9239 63.6301 53.1792C63.3977 53.8606 63.1295 54.5241 62.7899 55.1517C62.3966 55.8869 62.4681 56.5684 63.0044 57.1422C63.8804 58.0747 64.7564 59.0251 65.7575 59.8141C67.6882 61.3204 69.6904 62.7012 71.6748 64.1358C72.0145 64.3689 72.3005 64.5482 72.1217 65.0503C70.8524 68.7623 70.4949 72.6357 70.2268 76.4911C69.7619 83.1978 69.2435 89.9044 69.1184 96.6111C69.0111 102.493 69.4223 108.375 69.6011 114.238C69.6011 114.454 69.6011 114.651 69.6011 114.992C68.0815 114.902 66.5619 114.884 65.0603 114.741C63.3798 114.579 61.6994 114.328 60.0189 114.095C58.8212 113.934 58.267 113.36 58.2312 112.14C58.1955 110.527 58.3206 108.913 58.3027 107.299C58.2491 103.354 58.1597 99.4265 58.0703 95.4814C58.0703 95.0869 58.0346 94.7103 58.0346 94.3158C58.0882 85.4393 58.1597 76.5628 58.2312 67.6864C58.2491 65.8214 57.391 64.5482 55.7284 63.9744C55.1742 63.7771 54.6916 63.7951 54.477 64.4048C54.2804 64.9607 54.5843 65.3193 55.1027 65.4986C56.229 65.8752 56.6223 66.6463 56.6044 67.8298C56.515 76.5628 56.515 85.2779 56.372 94.0109C56.3184 96.9518 55.8893 99.8927 55.639 102.887C53.4938 103.354 51.4558 103.605 49.4178 103.407C48.2737 103.3 47.1295 103.031 45.9854 102.852C45.4849 102.762 45.3061 102.493 45.3061 101.991C45.3061 96.4318 45.0916 90.8728 45.324 85.3317C45.5385 80.3286 46.343 75.3614 46.6826 70.3583C47.0223 65.4986 47.0938 60.639 47.2726 55.7614C47.3441 53.9144 47.3083 52.0494 47.4692 50.2203C47.6659 48.0685 48.8636 46.5263 50.705 45.4683C52.3318 44.5538 55.5497 43.5495 57.0513 43.5316Z" fill="#422C1C"/>
<path d="M77.0381 56.5324C73.9811 54.9185 71.5856 52.8205 69.7085 50.0589C67.5454 46.8849 67.0806 43.5495 68.2783 39.9272C69.1007 37.4705 70.9957 35.9642 73.5878 36C75.6616 36.0359 77.7532 36.1435 79.8091 36.4483C82.6694 36.8608 84.3856 38.905 84.4392 41.8101C84.5107 45.4144 83.1342 48.5885 81.132 51.4576C79.8984 53.2329 78.4146 54.8468 77.0381 56.5324Z" fill="#422C1C"/>
<path d="M96.0951 50.4893C94.647 50.3817 93.4493 50.2562 92.2694 50.2024C91.1967 50.1486 90.1241 50.0768 89.0515 50.0948C86.9241 50.1665 85.6727 51.7266 86.2269 53.7888C86.6381 55.2951 87.2638 56.7656 87.9252 58.2002C88.3364 59.0968 88.1219 59.5809 87.3174 59.9754C85.8515 60.7107 84.4034 61.4638 82.9375 62.199C79.666 63.813 76.6805 65.8931 73.8381 68.1526C73.5699 68.3677 73.2839 68.5829 72.8191 68.9416C72.9621 68.2601 73.0336 67.7939 73.1409 67.3277C74.1956 62.9343 76.6627 59.3299 79.5945 56.0124C81.8828 53.4302 83.9565 50.7224 85.0828 47.4049C85.9409 44.9124 86.5308 42.4018 85.7442 39.7837C85.6012 39.3175 85.4224 38.8512 85.2079 38.2057C90.5353 40.8238 93.3062 45.4683 96.0951 50.4893Z" fill="#422C1C"/>
<path d="M55.9609 47.8533C59.1073 43.3523 62.3073 39.1382 67.7419 37.2015C66.4727 39.5686 65.8112 41.9715 66.0436 44.5179C66.1866 45.9166 66.5263 47.3691 67.0984 48.6244C68.6 51.9239 70.8883 54.5958 73.9632 56.5504C74.571 56.927 75.1609 57.3215 75.7509 57.716C75.8045 57.7519 75.8224 57.8057 75.8403 57.8416C74.8391 59.4913 73.838 61.1411 72.8012 62.8447C72.6939 62.7909 72.4973 62.7191 72.3364 62.6115C69.8514 60.7107 67.3665 58.8099 64.8995 56.9091C64.238 56.407 64.0771 55.8152 64.5777 55.0621C64.8101 54.7214 64.9174 54.3089 65.0604 53.9144C65.9185 51.5473 64.8995 49.5389 62.4682 49.001C60.609 48.5885 58.7319 48.3016 56.8548 47.9609C56.6224 47.9609 56.3721 47.925 55.9609 47.8533Z" fill="#422C1C"/>
<path d="M94.6826 104.214C98.0435 104.699 101.297 104.932 104.622 103.999C104.569 105.129 104.551 106.133 104.444 107.137C104.426 107.352 104.14 107.639 103.925 107.693C101.208 108.482 98.4547 108.339 95.7195 107.944C95.5407 107.926 95.2904 107.621 95.2547 107.424C95.0223 106.402 94.8793 105.38 94.6826 104.214Z" fill="#422C1C"/>
<path d="M55.2636 104.161C55.0849 105.29 54.9419 106.294 54.7273 107.263C54.6737 107.496 54.3698 107.819 54.1195 107.855C51.4201 108.321 48.7385 108.321 46.0927 107.586C45.8782 107.532 45.5564 107.317 45.5385 107.155C45.4312 106.097 45.3955 105.021 45.324 103.856C48.6491 104.842 51.8849 104.752 55.2636 104.161Z" fill="#422C1C"/>
<path d="M104.408 108.984C104.229 109.271 104.086 109.737 103.836 109.827C101.565 110.688 99.2414 111.172 96.7923 110.67C95.9878 110.508 95.5051 110.132 95.6302 109.11C98.4906 109.45 101.369 109.558 104.211 108.805C104.283 108.877 104.354 108.93 104.408 108.984Z" fill="#422C1C"/>
<path d="M45.7532 108.715C48.5956 109.415 51.456 109.468 54.3699 109.002C54.3521 109.917 53.9588 110.401 53.1364 110.562C50.8124 111.011 48.5778 110.652 46.3968 109.809C46.0571 109.684 45.8604 109.253 45.5923 108.948C45.6459 108.877 45.6995 108.805 45.7532 108.715Z" fill="#422C1C"/>
<path d="M87.8538 77.8359C87.4605 78.087 87.0851 78.4815 86.656 78.5353C86.1197 78.607 85.7085 78.1946 85.7264 77.5849C85.7443 76.9214 86.1554 76.5448 86.7633 76.6703C87.1566 76.7421 87.4962 77.1366 87.8538 77.3876C87.8538 77.549 87.8538 77.6925 87.8538 77.8359Z" fill="#422C1C"/>
<path d="M86.3519 107.388C86.1731 107.137 85.7262 106.797 85.6726 106.42C85.5832 105.81 86.0659 105.434 86.6737 105.452C87.2279 105.47 87.639 105.774 87.6569 106.384C87.6569 107.048 87.2457 107.317 86.3519 107.388Z" fill="#422C1C"/>
<path d="M87.7108 90.8369C87.675 91.7873 87.2996 92.1101 86.6739 92.1101C86.1018 92.1101 85.7085 91.8052 85.7085 91.1955C85.6906 90.532 86.1376 90.1555 86.7096 90.2272C87.1029 90.281 87.4605 90.6755 87.7108 90.8369Z" fill="#422C1C"/>
<path d="M76.4302 76.7959C76.9129 77.4056 77.3598 77.7284 77.4135 78.1229C77.5207 78.7326 77.0559 79.1271 76.4302 79.1271C75.7866 79.1271 75.3397 78.7326 75.4291 78.1408C75.5185 77.7463 75.9654 77.4056 76.4302 76.7959Z" fill="#422C1C"/>
<path d="M76.0547 108.393C75.8938 108.177 75.4827 107.837 75.4111 107.442C75.3039 106.814 75.8223 106.384 76.3944 106.492C76.7698 106.563 77.2704 107.048 77.3419 107.406C77.467 108.016 77.0022 108.375 76.0547 108.393Z" fill="#422C1C"/>
<path d="M76.2514 92.6301C75.304 92.6122 74.8213 92.2535 74.9285 91.6618C75 91.2852 75.5006 90.819 75.8939 90.7293C76.466 90.6038 76.9844 91.0521 76.895 91.6618C76.8414 92.0563 76.4123 92.397 76.2514 92.6301Z" fill="#422C1C"/>
</g>
<defs>
<linearGradient id="paint0_linear_43_976" x1="0.284486" y1="99.657" x2="333.176" y2="-28.7486" gradientUnits="userSpaceOnUse">
<stop stop-color="#E9A638"/>
<stop offset="0.25" stop-color="#F5EA77"/>
<stop offset="0.53" stop-color="#EAAE3F"/>
<stop offset="0.83" stop-color="#DE971A"/>
<stop offset="1" stop-color="#EFEA7A"/>
</linearGradient>
<clipPath id="clip0_43_976">
<rect width="64" height="81" fill="white" transform="translate(43 36)"/>
</clipPath>
</defs>
</svg>
