<svg width="150" height="150" viewBox="0 0 150 150" fill="none" xmlns="http://www.w3.org/2000/svg">
<circle cx="75" cy="75" r="75" fill="url(#paint0_linear_43_974)"/>
<g clip-path="url(#clip0_43_974)">
<path d="M39 63.9938C39.4074 62.6807 40.3036 61.7123 41.265 60.7768C42.5685 59.513 43.8395 58.1835 45.1268 56.8868C46.2185 55.7872 46.7562 55.7708 47.848 56.8704C59.8571 68.9834 71.8826 81.0635 83.8591 93.1929C86.2871 95.6385 89.106 96.8366 92.5279 96.8038C97.3837 96.7546 102.24 96.8695 107.095 96.7546C109.474 96.7053 111.136 97.4603 111.984 99.7582C111.984 101.071 111.984 102.384 111.984 103.697C111.951 103.73 111.902 103.779 111.886 103.812C110.778 108.03 108.301 109.951 103.95 109.951C98.7688 109.951 93.5871 109.885 88.3891 109.967C84.0547 110.049 80.5188 108.49 77.4717 105.404C65.3973 93.1765 53.2578 80.9815 41.1346 68.8029C40.2221 67.9001 39.3748 66.9317 39 65.6351C39 65.0935 39 64.5354 39 63.9938Z" fill="#422C1C"/>
<path d="M63.1161 42C63.4257 42.0985 63.7353 42.197 64.0449 42.2954C66.6683 43.1325 68.2978 45.6437 68.1186 48.4012C67.6297 55.5737 67.1735 62.7463 66.7009 69.9189C66.652 70.5426 66.6032 71.1663 66.538 71.9706C60.4275 65.8156 54.4473 59.7755 48.3857 53.6862C48.4183 53.6534 48.5324 53.4728 48.6628 53.3415C51.8076 50.1738 54.9688 47.006 58.0973 43.8219C59.0424 42.8535 60.2157 42.3447 61.4866 42C62.0244 42 62.5784 42 63.1161 42Z" fill="#422C1C"/>
<path d="M39 108.31C39.4074 107.538 40.0429 107.325 40.8902 107.325C52.2638 107.341 63.6375 107.341 74.9949 107.325C75.5163 107.325 75.9074 107.456 76.2821 107.834C76.9828 108.539 77.7487 109.179 78.5634 109.902C78.2538 109.918 77.9931 109.951 77.7487 109.951C65.4625 109.951 53.16 109.951 40.8739 109.967C40.0754 109.967 39.4563 109.787 39 109.114C39 108.851 39 108.589 39 108.31Z" fill="#422C1C"/>
<path d="M39 97.805C39.3259 97.0828 39.8636 96.7874 40.6783 96.7874C46.9518 96.8038 53.2089 96.8038 59.4824 96.8038C59.6779 96.8038 59.8734 96.7874 60.0527 96.8366C60.6882 96.9515 61.0629 97.3782 61.1281 98.0019C61.177 98.6092 60.9 99.0852 60.3297 99.2822C60.0038 99.3971 59.6453 99.4135 59.2868 99.4135C53.16 99.4135 47.017 99.4135 40.8902 99.4299C40.0429 99.4299 39.4074 99.2001 39 98.4451C39 98.2481 39 98.0183 39 97.805Z" fill="#422C1C"/>
<path d="M89.7252 63.5341C90.6703 66.2095 91.5828 68.7536 92.4301 71.314C92.5116 71.5274 92.3486 71.9377 92.1694 72.1183C90.654 73.6939 89.106 75.2204 87.5743 76.7632C87.444 76.8945 87.2973 77.0258 87.1669 77.1735C86.564 77.8301 86.5152 78.6015 87.0529 79.1431C87.6069 79.7012 88.3402 79.6848 88.9919 79.0446C90.2955 77.7644 91.5665 76.4678 92.8538 75.1547C93.0656 74.9413 93.2285 74.6787 93.5381 74.2848C96.5852 81.6543 100.61 88.1868 105.824 94.1776C105.352 94.1776 105.091 94.1776 104.83 94.1776C100.675 94.1776 96.5201 94.1612 92.3649 94.1776C89.7741 94.1941 87.6232 93.2913 85.7982 91.4366C80.3884 85.9382 74.9297 80.489 69.5198 75.007C69.2428 74.728 68.9984 74.2192 69.031 73.8252C69.3406 68.5566 69.7154 63.3044 70.0739 58.0357C70.0902 57.9044 70.1064 57.7731 70.1227 57.5597C70.6605 57.5761 71.1656 57.609 71.6707 57.6254C73.6424 57.691 75.1415 57.0837 76.0866 55.1142C77.1294 52.964 79.0196 51.8808 81.4312 51.8315C83.8265 51.7823 85.6841 52.8163 86.7107 54.9993C87.5091 56.6898 88.0631 58.4953 88.666 60.2843C88.7475 60.5141 88.5357 60.9573 88.3239 61.1706C85.8145 63.7475 83.2725 66.2916 80.7306 68.8356C80.5187 69.049 80.2906 69.2624 80.144 69.5086C79.7855 70.0994 79.8832 70.6739 80.3884 71.1335C80.8609 71.5766 81.4149 71.6259 81.9527 71.2484C82.2134 71.0678 82.4415 70.8216 82.6696 70.5918C84.7879 68.4745 86.8899 66.3408 89.0082 64.2235C89.2038 64.0265 89.4156 63.8296 89.7252 63.5341Z" fill="#422C1C"/>
</g>
<defs>
<linearGradient id="paint0_linear_43_974" x1="0.284486" y1="99.657" x2="333.176" y2="-28.7486" gradientUnits="userSpaceOnUse">
<stop stop-color="#E9A638"/>
<stop offset="0.25" stop-color="#F5EA77"/>
<stop offset="0.53" stop-color="#EAAE3F"/>
<stop offset="0.83" stop-color="#DE971A"/>
<stop offset="1" stop-color="#EFEA7A"/>
</linearGradient>
<clipPath id="clip0_43_974">
<rect width="73" height="68" fill="white" transform="translate(39 42)"/>
</clipPath>
</defs>
</svg>
