<svg width="150" height="150" viewBox="0 0 150 150" fill="none" xmlns="http://www.w3.org/2000/svg">
<circle cx="75" cy="75" r="75" fill="url(#paint0_linear_43_972)"/>
<g clip-path="url(#clip0_43_972)">
<path d="M76.0576 44C77.4679 44.3119 78.8938 44.5303 80.2732 44.9514C87.9606 47.322 93.5092 54.6055 93.8502 62.7C93.8502 62.778 93.8347 62.856 93.8192 62.9807C80.8622 62.9807 67.9052 62.9807 54.7312 62.9807C55.0257 61.3587 55.2117 59.7367 55.6456 58.1771C57.7535 50.6128 64.356 45.0294 72.1518 44.1404C72.3223 44.1248 72.4928 44.0468 72.6633 44C73.7792 44 74.9106 44 76.0576 44Z" fill="#422C1C"/>
<path d="M95.8961 112C95.2141 111.485 94.3927 111.08 93.8812 110.425C93.4783 109.926 93.2923 109.13 93.2923 108.475C93.2458 102.783 93.2613 97.0899 93.2923 91.4129C93.2923 91.0386 93.5093 90.4927 93.7882 90.2899C95.9736 88.7771 98.2054 87.3266 100.422 85.8606L100.406 85.845C100.499 86.5624 100.654 87.2799 100.685 87.9973C100.732 89.011 100.685 90.0248 100.701 91.0386C100.716 91.8652 100.716 92.5514 99.8948 93.1753C98.7944 94.0175 98.9338 95.7331 99.9568 96.6844C100.995 97.667 102.638 97.5422 103.537 96.4349C104.42 95.3588 104.281 93.7211 103.134 92.9101C102.654 92.567 102.545 92.2395 102.545 91.7092C102.576 89.6817 102.561 87.6698 102.561 85.6578C102.592 85.6734 102.793 85.767 102.964 85.8918C105.04 87.2799 107.133 88.6835 109.21 90.0872C109.504 90.2899 109.737 90.5707 110 90.8046C110 96.9964 110 103.173 110 109.364C109.52 110.659 108.636 111.532 107.365 112.016C103.537 112 99.7088 112 95.8961 112Z" fill="#422C1C"/>
<path d="M100.406 85.8449C100.205 84.4257 99.5694 82.7569 98.8719 81.7431C95.4932 82.6477 92.1919 83.6459 88.8287 84.4101C82.9236 85.767 76.9101 85.9697 70.8811 85.7202C65.317 85.4862 59.8304 84.7532 54.4834 83.1624C50.4227 81.9615 46.548 80.3862 43.1847 77.7193C41.4489 76.3468 40.023 74.7404 39.217 72.6349C38.7211 71.3248 39.062 70.8257 40.4259 70.8257C63.0387 70.8257 85.6669 70.8257 108.28 70.8257C109.597 70.8257 109.969 71.3404 109.489 72.5725C108.652 74.7872 107.164 76.5027 105.288 77.844C103.785 78.9202 102.142 79.8092 100.561 80.7917C100.391 80.5578 100.236 80.3394 100.065 80.1055C98.6859 78.078 96.9036 76.5027 94.7492 75.3642C94.2223 75.0835 93.7418 75.1147 93.4163 75.6605C93.0909 76.2064 93.2768 76.6899 93.8038 76.9706C95.8496 78.0468 97.508 79.5596 98.8099 81.5404C99.4299 81.2752 100.003 81.0257 100.592 80.7761C101.197 82.2422 101.786 83.7083 102.39 85.1587C102.328 85.2055 102.266 85.2523 102.204 85.2991C101.445 84.9716 100.933 85.4394 100.406 85.8294C100.391 85.8294 100.406 85.8449 100.406 85.8449Z" fill="#422C1C"/>
<path d="M61.4268 94.5009C62.6357 94.5009 63.7827 94.5009 64.9606 94.5009C65.7665 92.1146 67.3629 90.633 69.8272 90.2431C70.5401 90.1339 71.2686 90.1651 71.997 90.1807C74.4923 90.2119 77.0186 90.0715 79.4984 90.3678C83.2646 90.8045 86.2404 94.2045 86.4109 98.0412C86.4884 99.6944 86.5194 101.394 86.1784 103.001C85.2795 107.29 81.3273 109.957 76.9256 109.473C70.8036 108.803 66.2005 104.592 64.9916 98.5403C64.8676 97.8853 64.8056 97.199 64.7126 96.4816C63.7207 96.4816 62.6977 96.4816 61.6593 96.4816C61.5353 98.4311 61.1634 100.318 60.2644 102.034C57.7381 106.838 53.7704 109.395 48.3614 109.505C43.7427 109.598 40.023 105.855 39.9765 101.207C39.961 99.6632 39.93 98.0568 40.271 96.5596C41.0924 92.8321 44.3782 90.2587 48.1754 90.1963C50.5312 90.1495 52.8715 90.1807 55.2273 90.1807C58.3736 90.1651 60.2799 91.4908 61.4268 94.5009Z" fill="#422C1C"/>
<path d="M96.3611 68.9073C81.6372 68.9073 67.0218 68.9073 52.36 68.9073C52.36 67.8311 52.329 66.8018 52.3755 65.7724C52.391 65.2265 52.7474 64.9458 53.2899 64.899C53.4914 64.8834 53.7084 64.899 53.9099 64.899C67.5488 64.899 81.1722 64.899 94.8112 64.899C96.1751 64.899 96.3766 65.1018 96.3766 66.4743C96.3611 67.2697 96.3611 68.0651 96.3611 68.9073Z" fill="#422C1C"/>
</g>
<defs>
<linearGradient id="paint0_linear_43_972" x1="0.284486" y1="99.657" x2="333.176" y2="-28.7486" gradientUnits="userSpaceOnUse">
<stop stop-color="#E9A638"/>
<stop offset="0.25" stop-color="#F5EA77"/>
<stop offset="0.53" stop-color="#EAAE3F"/>
<stop offset="0.83" stop-color="#DE971A"/>
<stop offset="1" stop-color="#EFEA7A"/>
</linearGradient>
<clipPath id="clip0_43_972">
<rect width="71" height="68" fill="white" transform="translate(39 44)"/>
</clipPath>
</defs>
</svg>
