<svg width="150" height="150" viewBox="0 0 150 150" fill="none" xmlns="http://www.w3.org/2000/svg">
<circle cx="75" cy="75" r="75" fill="url(#paint0_linear_43_980)"/>
<g clip-path="url(#clip0_43_980)">
<path d="M41 105.815C42.2559 104.152 43.527 102.504 44.7523 100.826C47.7234 96.7361 50.7865 92.7078 53.5892 88.4964C56.1162 84.6969 58.4135 80.7296 60.6802 76.7623C62.4721 73.6037 63.9117 70.2468 64.8 66.7067C65.5198 63.8686 64.8919 61.1983 63.7892 58.5432C63.0847 56.8648 62.5027 55.1252 62.0892 53.3552C61.6757 51.5852 62.0279 49.7846 62.809 48.1519C63.8504 45.9699 63.973 43.7421 63.4369 41.4686C63.0081 39.6985 62.4414 37.959 61.936 36.2043C61.7982 35.716 61.5991 35.2277 61.5838 34.7394C61.5532 33.8849 62.227 33.1678 63.0387 33.0304C63.927 32.8778 64.7387 33.2898 65.0757 34.1291C66.2703 37.0282 67.1279 40.0342 67.4342 43.1623C67.4802 43.6353 67.6333 43.8642 68.0775 44.0321C70.7117 44.9628 72.9937 46.443 74.8162 48.274C76.5775 47.0991 78.2622 45.9699 79.9468 44.8713C80.2225 44.6882 80.5288 44.5203 80.8505 44.4593C82.1676 44.1999 82.5811 43.4217 82.7036 42.0942C82.9793 39.3934 83.8063 36.7841 84.8477 34.2664C85.2613 33.244 86.2721 32.771 87.191 33.122C88.1559 33.4882 88.6153 34.4342 88.2937 35.5024C87.9721 36.54 87.5126 37.547 87.2523 38.5999C86.8387 40.2936 86.5018 42.0179 86.2414 43.7421C86.0423 45.0544 86.3333 46.3361 86.9153 47.5263C88.4315 50.6239 88.2018 53.7062 86.9766 56.819C86.318 58.4669 85.6135 60.1149 85.1541 61.8086C84.4495 64.4179 85.0928 66.9356 85.9964 69.4075C87.7577 74.2598 90.1622 78.7917 92.9189 83.1252C95.7369 87.5656 98.7081 91.9143 101.741 96.2021C103.777 99.086 106.044 101.802 108.204 104.61C108.495 104.991 108.74 105.403 109 105.815C109 106.075 109 106.319 109 106.578C108.295 107.921 107.913 108.104 106.381 107.951C105.677 107.875 104.957 107.784 104.252 107.768C96.855 107.463 89.9171 109.233 83.5153 112.865C79.3495 115.215 75.0153 116.741 70.2216 116.969C66.209 117.152 62.2883 116.573 58.4288 115.505C52.8387 113.948 47.6622 111.491 42.8072 108.348C42.118 107.906 41.5973 107.173 41 106.578C41 106.334 41 106.075 41 105.815Z" fill="#422C1C"/>
</g>
<defs>
<linearGradient id="paint0_linear_43_980" x1="0.284486" y1="99.657" x2="333.176" y2="-28.7486" gradientUnits="userSpaceOnUse">
<stop stop-color="#E9A638"/>
<stop offset="0.25" stop-color="#F5EA77"/>
<stop offset="0.53" stop-color="#EAAE3F"/>
<stop offset="0.83" stop-color="#DE971A"/>
<stop offset="1" stop-color="#EFEA7A"/>
</linearGradient>
<clipPath id="clip0_43_980">
<rect width="68" height="84" fill="white" transform="translate(41 33)"/>
</clipPath>
</defs>
</svg>
