<svg width="241" height="233" viewBox="0 0 241 233" fill="none" xmlns="http://www.w3.org/2000/svg">
<path d="M87.4907 115.634L87.4879 115.632C83.2752 112.902 77.1901 111.506 69.1719 111.506C60.9798 111.506 54.4705 113.285 49.5976 116.792L49.5941 116.794C44.729 120.232 41.8483 125.031 40.949 131.228L40.8869 131.656H40.4542H2H1.46514L1.50113 131.122C2.22784 120.347 5.40162 111.091 11.0377 103.376L11.0381 103.375C16.7372 95.598 24.5517 89.6756 34.4615 85.6019C44.3695 81.5289 55.9763 79.5 69.2703 79.5C82.5576 79.5 94.0284 81.2988 103.671 84.9115C113.314 88.5243 120.711 93.7593 125.828 100.632C130.949 107.446 133.5 115.64 133.5 125.189C133.5 132.462 131.47 138.954 127.408 144.651L127.406 144.653C123.344 150.282 117.301 154.928 109.311 158.606L87.4907 115.634ZM87.4907 115.634C91.7463 118.35 93.8491 122.107 93.8491 126.95C93.8491 131.552 90.6896 135.431 84.0099 138.527C84.0096 138.527 84.0093 138.527 84.009 138.527L68.8682 145.469C68.8678 145.47 68.8675 145.47 68.8671 145.47C61.1535 148.945 55.4998 152.999 51.9565 157.653C48.4106 162.311 46.6419 167.766 46.6419 173.997C46.6419 176.456 46.976 178.788 47.6471 180.99L47.755 181.344H48.1254H83.1374H83.6374V180.844V177.616C83.6374 175.043 84.3604 172.911 85.7849 171.186C87.2294 169.437 89.486 167.813 92.5943 166.332C92.5953 166.331 92.5963 166.331 92.5972 166.33L109.31 158.606L87.4907 115.634ZM45.141 200.245L45.1409 200.245L45.137 200.252C43.2512 203.467 42.3146 207.142 42.3146 211.264C42.3146 215.385 43.2513 219.092 45.1348 222.37L45.1347 222.37L45.141 222.381C47.091 225.591 49.7819 228.098 53.2032 229.899L53.2032 229.899L53.2136 229.905C56.702 231.639 60.6814 232.5 65.1396 232.5C69.5976 232.5 73.5458 231.639 76.9709 229.903L76.9742 229.901C80.4619 228.1 83.1564 225.591 85.0428 222.376C86.9939 219.097 87.9647 215.388 87.9647 211.264C87.9647 207.141 86.9945 203.464 85.0421 200.249C83.1557 197.034 80.4608 194.557 76.9726 192.821C73.5472 191.019 69.5983 190.125 65.1396 190.125C60.6793 190.125 56.6981 191.02 53.2086 192.821C49.7844 194.558 47.0917 197.034 45.141 200.245Z" fill="#303132" stroke="#F1A935"/>
<path d="M108.188 13.4665L108.191 13.4683C109.563 14.3403 110.223 15.5234 110.223 17.0618C110.223 18.4458 109.282 19.6858 107.035 20.7232C107.034 20.7233 107.034 20.7235 107.034 20.7236L101.836 23.0972C101.835 23.0975 101.835 23.0977 101.834 23.0979C99.1571 24.2993 97.1622 25.7145 95.9001 27.3656C94.6351 29.0204 94.0068 30.9581 94.0068 33.157C94.0068 34.0284 94.1257 34.8588 94.3665 35.6456L94.4747 35.9994H94.8446H106.872H107.372V35.4994V34.3951C107.372 33.5813 107.599 32.9289 108.034 32.4054C108.488 31.8575 109.217 31.3277 110.259 30.8326C110.26 30.8322 110.261 30.8318 110.262 30.8314L115.999 28.1907C115.999 28.1906 115.999 28.1906 115.999 28.1905C118.781 26.9153 120.907 25.2942 122.344 23.3114L122.346 23.3091C123.783 21.3022 124.5 19.0133 124.5 16.4595C124.5 13.1305 123.606 10.2554 121.798 7.86041C119.996 5.44917 117.398 3.62509 114.04 2.37196C110.682 1.119 106.701 0.5 102.108 0.5C97.509 0.5 93.4781 1.19896 90.0268 2.61192C86.5736 4.02565 83.8381 6.08671 81.8405 8.80148L81.8401 8.80209C79.8624 11.4984 78.7544 14.7266 78.5011 18.4669L78.465 19.0006H79H92.2095H92.6419L92.7042 18.5727C93.0007 16.538 93.9439 14.9785 95.5378 13.8568L95.5378 13.8568L95.5413 13.8543C97.143 12.7062 99.3052 12.1075 102.074 12.1075C104.798 12.1075 106.816 12.5811 108.188 13.4665ZM93.5394 41.9649L93.5393 41.9648L93.5354 41.9715C92.8545 43.1276 92.5203 44.4441 92.5203 45.9061C92.5203 47.3682 92.8545 48.694 93.5331 49.8702L93.533 49.8703L93.5394 49.8807C94.2413 51.0315 95.2107 51.9299 96.4367 52.5728L96.4367 52.5729L96.447 52.5781C97.6971 53.1971 99.1151 53.5 100.689 53.5C102.263 53.5 103.671 53.1972 104.901 52.5763L104.904 52.5746C106.154 51.9321 107.127 51.032 107.808 49.8756C108.511 48.6986 108.858 47.3709 108.858 45.9061C108.858 44.4422 108.512 43.1244 107.807 41.9681C107.126 40.8124 106.153 39.9236 104.903 39.3036C103.673 38.6598 102.264 38.3456 100.689 38.3456C99.113 38.3456 97.6931 38.6604 96.4419 39.3036C95.2131 39.9244 94.242 40.8129 93.5394 41.9649Z" fill="#303132" stroke="#F1A935"/>
<path d="M166.188 55.4665L166.191 55.4683C167.563 56.3403 168.223 57.5234 168.223 59.0618C168.223 60.4458 167.282 61.6858 165.035 62.7232C165.034 62.7233 165.034 62.7235 165.034 62.7236L159.836 65.0972C159.835 65.0975 159.835 65.0977 159.834 65.0979C157.157 66.2993 155.162 67.7145 153.9 69.3656C152.635 71.0204 152.007 72.9581 152.007 75.157C152.007 76.0284 152.126 76.8588 152.366 77.6456L152.475 77.9994H152.845H164.872H165.372V77.4994V76.3951C165.372 75.5813 165.599 74.9289 166.034 74.4054C166.488 73.8575 167.217 73.3277 168.259 72.8326C168.26 72.8322 168.261 72.8318 168.262 72.8314L173.999 70.1907C173.999 70.1906 173.999 70.1906 173.999 70.1905C176.781 68.9153 178.907 67.2942 180.344 65.3114L180.346 65.3091C181.783 63.3022 182.5 61.0133 182.5 58.4595C182.5 55.1305 181.606 52.2554 179.798 49.8604C177.996 47.4492 175.398 45.6251 172.04 44.372C168.682 43.119 164.701 42.5 160.108 42.5C155.509 42.5 151.478 43.199 148.027 44.6119C144.574 46.0256 141.838 48.0867 139.841 50.8015L139.84 50.8021C137.862 53.4984 136.754 56.7266 136.501 60.4669L136.465 61.0006H137H150.209H150.642L150.704 60.5727C151.001 58.538 151.944 56.9785 153.538 55.8568L153.538 55.8568L153.541 55.8543C155.143 54.7062 157.305 54.1075 160.074 54.1075C162.798 54.1075 164.816 54.5811 166.188 55.4665ZM151.539 83.9649L151.539 83.9648L151.535 83.9715C150.854 85.1276 150.52 86.4441 150.52 87.9061C150.52 89.3682 150.855 90.694 151.533 91.8702L151.533 91.8703L151.539 91.8807C152.241 93.0315 153.211 93.9299 154.437 94.5728L154.437 94.5729L154.447 94.5781C155.697 95.1971 157.115 95.5 158.689 95.5C160.263 95.5 161.671 95.1972 162.901 94.5763L162.904 94.5746C164.154 93.9321 165.127 93.032 165.808 91.8756C166.511 90.6986 166.858 89.3709 166.858 87.9061C166.858 86.4422 166.512 85.1244 165.807 83.9681C165.126 82.8124 164.153 81.9236 162.903 81.3036C161.673 80.6598 160.264 80.3456 158.689 80.3456C157.113 80.3456 155.693 80.6604 154.442 81.3036C153.213 81.9244 152.242 82.8129 151.539 83.9649Z" fill="#303132" stroke="#F1A935"/>
<path d="M166.188 142.466L166.191 142.468C167.563 143.34 168.223 144.523 168.223 146.062C168.223 147.446 167.282 148.686 165.035 149.723C165.034 149.723 165.034 149.723 165.034 149.724L159.836 152.097C159.835 152.097 159.835 152.098 159.834 152.098C157.157 153.299 155.162 154.714 153.9 156.366C152.635 158.02 152.007 159.958 152.007 162.157C152.007 163.028 152.126 163.859 152.366 164.646L152.475 164.999H152.845H164.872H165.372V164.499V163.395C165.372 162.581 165.599 161.929 166.034 161.405C166.488 160.857 167.217 160.328 168.259 159.833C168.26 159.832 168.261 159.832 168.262 159.831L173.999 157.191C173.999 157.191 173.999 157.191 173.999 157.191C176.781 155.915 178.907 154.294 180.344 152.311L180.346 152.309C181.783 150.302 182.5 148.013 182.5 145.459C182.5 142.131 181.606 139.255 179.798 136.86C177.996 134.449 175.398 132.625 172.04 131.372C168.682 130.119 164.701 129.5 160.108 129.5C155.509 129.5 151.478 130.199 148.027 131.612C144.574 133.026 141.838 135.087 139.841 137.801L139.84 137.802C137.862 140.498 136.754 143.727 136.501 147.467L136.465 148.001H137H150.209H150.642L150.704 147.573C151.001 145.538 151.944 143.978 153.538 142.857L153.538 142.857L153.541 142.854C155.143 141.706 157.305 141.107 160.074 141.107C162.798 141.107 164.816 141.581 166.188 142.466ZM151.539 170.965L151.539 170.965L151.535 170.971C150.854 172.128 150.52 173.444 150.52 174.906C150.52 176.368 150.855 177.694 151.533 178.87L151.533 178.87L151.539 178.881C152.241 180.032 153.211 180.93 154.437 181.573L154.437 181.573L154.447 181.578C155.697 182.197 157.115 182.5 158.689 182.5C160.263 182.5 161.671 182.197 162.901 181.576L162.904 181.575C164.154 180.932 165.127 180.032 165.808 178.876C166.511 177.699 166.858 176.371 166.858 174.906C166.858 173.442 166.512 172.124 165.807 170.968C165.126 169.812 164.153 168.924 162.903 168.304C161.673 167.66 160.264 167.346 158.689 167.346C157.113 167.346 155.693 167.66 154.442 168.304C153.213 168.924 152.242 169.813 151.539 170.965Z" fill="#303132" stroke="#F1A935"/>
<path d="M224.188 39.4665L224.191 39.4683C225.563 40.3403 226.223 41.5234 226.223 43.0618C226.223 44.4458 225.282 45.6858 223.035 46.7232C223.034 46.7233 223.034 46.7235 223.034 46.7236L217.836 49.0972C217.835 49.0975 217.835 49.0977 217.834 49.0979C215.157 50.2993 213.162 51.7145 211.9 53.3656C210.635 55.0204 210.007 56.9581 210.007 59.157C210.007 60.0284 210.126 60.8588 210.366 61.6456L210.475 61.9994H210.845H222.872H223.372V61.4994V60.3951C223.372 59.5813 223.599 58.9289 224.034 58.4054C224.488 57.8575 225.217 57.3277 226.259 56.8326C226.26 56.8322 226.261 56.8318 226.262 56.8314L231.999 54.1907C231.999 54.1906 231.999 54.1906 231.999 54.1905C234.781 52.9153 236.907 51.2942 238.344 49.3114L238.346 49.3091C239.783 47.3022 240.5 45.0133 240.5 42.4595C240.5 39.1305 239.606 36.2554 237.798 33.8604C235.996 31.4492 233.398 29.6251 230.04 28.372C226.682 27.119 222.701 26.5 218.108 26.5C213.509 26.5 209.478 27.199 206.027 28.6119C202.574 30.0256 199.838 32.0867 197.841 34.8015L197.84 34.8021C195.862 37.4984 194.754 40.7266 194.501 44.4669L194.465 45.0006H195H208.209H208.642L208.704 44.5727C209.001 42.538 209.944 40.9785 211.538 39.8568L211.538 39.8568L211.541 39.8543C213.143 38.7062 215.305 38.1075 218.074 38.1075C220.798 38.1075 222.816 38.5811 224.188 39.4665ZM209.539 67.9649L209.539 67.9648L209.535 67.9715C208.854 69.1276 208.52 70.4441 208.52 71.9061C208.52 73.3682 208.855 74.694 209.533 75.8702L209.533 75.8703L209.539 75.8807C210.241 77.0315 211.211 77.9299 212.437 78.5728L212.437 78.5729L212.447 78.5781C213.697 79.1971 215.115 79.5 216.689 79.5C218.263 79.5 219.671 79.1972 220.901 78.5763L220.904 78.5746C222.154 77.9321 223.127 77.032 223.808 75.8756C224.511 74.6986 224.858 73.3709 224.858 71.9061C224.858 70.4422 224.512 69.1244 223.807 67.9681C223.126 66.8124 222.153 65.9236 220.903 65.3036C219.673 64.6598 218.264 64.3456 216.689 64.3456C215.113 64.3456 213.693 64.6604 212.442 65.3036C211.213 65.9244 210.242 66.8129 209.539 67.9649Z" fill="#303132" stroke="#F1A935"/>
</svg>
